<svg width="32" height="33" viewBox="0 0 32 33" fill="none" xmlns="http://www.w3.org/2000/svg">
<path fill-rule="evenodd" clip-rule="evenodd" d="M0 16.1053C0 9.67185 0 6.45515 1.48794 4.13825C2.15237 3.10364 3.01236 2.2176 4.01654 1.53303C6.26529 0 9.38739 0 15.6316 0C21.8758 0 24.9979 0 27.2466 1.53303C28.2508 2.2176 29.1108 3.10364 29.7752 4.13825C31.2632 6.45515 31.2632 9.67185 31.2632 16.1053C31.2632 22.5387 31.2632 25.7554 29.7752 28.0723C29.1108 29.1069 28.2508 29.9929 27.2466 30.6775C24.9979 32.2105 21.8758 32.2105 15.6316 32.2105C9.38739 32.2105 6.26529 32.2105 4.01654 30.6775C3.01236 29.9929 2.15237 29.1069 1.48794 28.0723C0 25.7554 0 22.5387 0 16.1053ZM23.7244 16.1074C23.7244 20.7123 20.1012 24.4453 15.6317 24.4453C11.1623 24.4453 7.53906 20.7123 7.53906 16.1074C7.53906 11.5025 11.1623 7.76953 15.6317 7.76953C20.1012 7.76953 23.7244 11.5025 23.7244 16.1074ZM15.6317 21.6244C18.589 21.6244 20.9864 19.1543 20.9864 16.1074C20.9864 13.0605 18.589 10.5905 15.6317 10.5905C12.6744 10.5905 10.277 13.0605 10.277 16.1074C10.277 19.1543 12.6744 21.6244 15.6317 21.6244ZM24.044 9.30894C25.0941 9.30894 25.9455 8.4318 25.9455 7.34978C25.9455 6.26777 25.0941 5.39062 24.044 5.39062C22.9938 5.39062 22.1424 6.26777 22.1424 7.34978C22.1424 8.4318 22.9938 9.30894 24.044 9.30894Z" fill="url(#paint0_linear_1183_7331)"/>
<defs>
<linearGradient id="paint0_linear_1183_7331" x1="25.4382" y1="32.2105" x2="25.4382" y2="0" gradientUnits="userSpaceOnUse">
<stop stop-color="#F57B20"/>
<stop offset="1" stop-color="#FCB040"/>
</linearGradient>
</defs>
</svg>
