<svg width="32" height="31" viewBox="0 0 32 31" fill="none" xmlns="http://www.w3.org/2000/svg">
<path d="M0 3.54016C0 2.51401 0.352073 1.66745 1.05619 1.00048C1.7603 0.333483 2.67569 0 3.80228 0C4.90877 0 5.80399 0.328342 6.48801 0.985089C7.19213 1.66234 7.5442 2.54479 7.5442 3.63251C7.5442 4.6176 7.20221 5.43849 6.51819 6.09524C5.81407 6.77248 4.88864 7.11111 3.74192 7.11111H3.71175C2.60525 7.11111 1.71003 6.77248 1.02601 6.09524C0.341994 5.41799 0 4.56629 0 3.54016ZM0.392298 30.4762V9.91245H7.09155V30.4762H0.392298ZM10.8033 30.4762H17.5025V18.9937C17.5025 18.2754 17.583 17.7213 17.744 17.3314C18.0256 16.6336 18.4531 16.0436 19.0265 15.5613C19.5998 15.079 20.319 14.8379 21.1841 14.8379C23.4373 14.8379 24.5639 16.3873 24.5639 19.4863V30.4762H31.2632V18.6859C31.2632 15.6485 30.559 13.3449 29.1508 11.7749C27.7425 10.2049 25.8816 9.41991 23.5681 9.41991C20.9729 9.41991 18.951 10.5589 17.5025 12.8369V12.8985H17.4724L17.5025 12.8369V9.91245H10.8033C10.8435 10.5692 10.8636 12.6112 10.8636 16.0385C10.8636 19.4658 10.8435 24.2783 10.8033 30.4762Z" fill="url(#paint0_linear_1183_7340)"/>
<defs>
<linearGradient id="paint0_linear_1183_7340" x1="25.4382" y1="30.4762" x2="25.4382" y2="0" gradientUnits="userSpaceOnUse">
<stop stop-color="#F57B20"/>
<stop offset="1" stop-color="#FCB040"/>
</linearGradient>
</defs>
</svg>
