<svg width="19" height="15" viewBox="0 0 19 15" fill="none" xmlns="http://www.w3.org/2000/svg">
<path d="M17.6667 3.08203V11.4154C17.6667 11.9679 17.4472 12.4978 17.0565 12.8885C16.6658 13.2792 16.1359 13.4987 15.5833 13.4987H3.08333C2.5308 13.4987 2.00089 13.2792 1.61019 12.8885C1.21949 12.4978 1 11.9679 1 11.4154V3.08203" stroke="url(#paint0_linear_1183_7354)" stroke-width="1.4" stroke-linecap="round" stroke-linejoin="round"/>
<path d="M17.6667 3.08333C17.6667 2.5308 17.4472 2.0009 17.0565 1.61019C16.6658 1.21949 16.1359 1 15.5833 1H3.08333C2.5308 1 2.00089 1.21949 1.61019 1.61019C1.21949 2.0009 1 2.5308 1 3.08333L8.22917 7.59722C8.56027 7.80417 8.94288 7.91389 9.33333 7.91389C9.72379 7.91389 10.1064 7.80417 10.4375 7.59722L17.6667 3.08333Z" stroke="url(#paint1_linear_1183_7354)" stroke-width="1.4" stroke-linecap="round" stroke-linejoin="round"/>
<defs>
<linearGradient id="paint0_linear_1183_7354" x1="14.5613" y1="13.4987" x2="14.5613" y2="3.08203" gradientUnits="userSpaceOnUse">
<stop stop-color="#F57B20"/>
<stop offset="1" stop-color="#FCB040"/>
</linearGradient>
<linearGradient id="paint1_linear_1183_7354" x1="14.5613" y1="7.91389" x2="14.5613" y2="1" gradientUnits="userSpaceOnUse">
<stop stop-color="#F57B20"/>
<stop offset="1" stop-color="#FCB040"/>
</linearGradient>
</defs>
</svg>
