<svg width="35" height="25" viewBox="0 0 35 25" fill="none" xmlns="http://www.w3.org/2000/svg">
<path d="M18.2157 24.2289L11.0585 24.0973C8.74119 24.0515 6.41808 24.143 4.14618 23.6679C0.690088 22.9581 0.445247 19.4777 0.189046 16.5584C-0.163973 12.4541 -0.027309 8.27537 0.638883 4.20537C1.01497 1.92168 2.49503 0.558981 4.78388 0.410694C12.5105 -0.127463 20.2884 -0.0636857 27.9978 0.187384C28.8121 0.2104 29.6319 0.336198 30.4347 0.47939C34.3978 1.17778 34.4944 5.1218 34.7513 8.44193C35.0075 11.7963 34.8994 15.1679 34.4097 18.4995C34.0168 21.2579 33.2652 23.5711 30.0931 23.7944C26.1186 24.0864 22.2354 24.3215 18.2498 24.2467C18.25 24.2289 18.2271 24.2289 18.2157 24.2289ZM14.008 17.2453C17.0031 15.5165 19.941 13.8165 22.9189 12.0992C19.9183 10.3704 16.9859 8.67033 14.008 6.95308V17.2453Z" fill="url(#paint0_linear_1183_7343)"/>
<defs>
<linearGradient id="paint0_linear_1183_7343" x1="28.3858" y1="24.2607" x2="28.3858" y2="0" gradientUnits="userSpaceOnUse">
<stop stop-color="#F57B20"/>
<stop offset="1" stop-color="#FCB040"/>
</linearGradient>
</defs>
</svg>
