<svg width="140" height="140" viewBox="0 0 140 140" fill="none" xmlns="http://www.w3.org/2000/svg">
<path d="M39 68.5C39 52.2076 52.2076 39 68.5 39H70.5C86.7924 39 100 52.2076 100 68.5C100 84.7924 86.7924 98 70.5 98H68.5C52.2076 98 39 84.7924 39 68.5Z" fill="url(#paint0_linear_984_8026)" stroke="white" stroke-width="3"/>
<path d="M58.1349 17.7789L58.1349 17.7789C56.4679 18.1439 55.272 19.7058 55.272 21.568V32.361V33.3449L54.3695 33.7368C51.6002 34.9393 48.9805 36.412 46.611 38.1503L45.8249 38.727L44.9787 38.2427L36.1104 33.1674C36.11 33.1671 36.1095 33.1669 36.1091 33.1666C34.4691 32.2334 32.521 32.486 31.3241 33.7477C28.6894 36.5349 26.3608 39.6723 24.3405 43.1296C22.3298 46.5704 20.8004 50.1548 19.6506 53.8185C19.1591 55.4662 19.9068 57.255 21.5342 58.1818L21.5347 58.182L30.4415 63.259L31.3093 63.7536L31.1875 64.7451C31.0175 66.1282 30.9483 67.5214 30.9483 68.9645C30.9483 70.3855 31.0506 71.7864 31.1915 73.2201L31.2865 74.1864L30.4438 74.6687L21.5727 79.7457L21.57 79.7472C19.9224 80.6855 19.1708 82.4779 19.6826 84.0986L19.685 84.1062L19.6873 84.1138C20.7975 87.7637 22.3598 91.3486 24.3763 94.7994C26.3968 98.257 28.7256 101.395 31.3606 104.182C32.5573 105.443 34.5046 105.695 36.1441 104.763C36.1448 104.762 36.1455 104.762 36.1462 104.762L44.9764 99.6876L45.832 99.1959L46.6222 99.787C48.9854 101.555 51.5965 103.022 54.355 104.186L55.272 104.573V105.568V116.432C55.272 118.294 56.4679 119.856 58.1349 120.221L58.1459 120.224C61.7959 121.052 65.6194 121.5 69.5109 121.5C73.4025 121.5 77.2259 121.052 80.8759 120.224L80.887 120.221C82.5539 119.856 83.7498 118.294 83.7498 116.432V105.568V104.573L84.6668 104.186C87.4149 103.027 89.9604 101.559 92.3393 99.8142L93.1239 99.2386L93.9694 99.7205L102.876 104.797L102.885 104.802C104.481 105.727 106.463 105.481 107.662 104.216L58.1349 17.7789ZM58.1349 17.7789L58.1459 17.7764C61.7959 16.9484 65.6194 16.5 69.5109 16.5C73.4025 16.5 77.2259 16.9484 80.8759 17.7764L80.8759 17.7765L80.887 17.7789C82.5539 18.1439 83.7498 19.7058 83.7498 21.568V32.432V33.4223L84.6606 33.8114C87.382 34.9739 89.9646 36.4437 92.3393 38.1858L93.1239 38.7614L93.9694 38.2795L102.876 33.2029C102.876 33.2028 102.876 33.2027 102.876 33.2026C104.516 32.2687 106.465 32.5213 107.662 33.7835L58.1349 17.7789ZM107.662 33.7836C110.297 36.5708 112.625 39.708 114.646 43.1651C116.662 46.6159 118.224 50.2008 119.335 53.8507L119.337 53.8583L119.339 53.8659C119.851 55.4866 119.099 57.279 117.452 58.2172L117.45 58.2185L108.507 63.3309L107.662 63.8144L107.759 64.7835C107.9 66.1783 108.002 67.5789 108.002 69C108.002 70.4416 107.933 71.7995 107.763 73.1839L107.641 74.174L108.507 74.6691L117.45 79.7815L117.452 79.7828C119.079 80.7095 119.827 82.4983 119.336 84.146C118.188 87.8019 116.623 91.3912 114.64 94.8447C112.662 98.2883 110.302 101.424 107.662 104.216V33.7836Z" stroke="white" stroke-width="3"/>
<rect opacity="0.1" width="10.381" height="10.381" transform="matrix(0 1 1 0 4 44)" fill="white"/>
<rect opacity="0.4" width="10.381" height="10.381" transform="matrix(0 1 1 0 17.381 44)" fill="white"/>
<rect opacity="0.7" width="10.381" height="10.381" transform="matrix(0 1 1 0 30.762 44)" fill="white"/>
<rect width="10.381" height="10.381" transform="matrix(0 1 1 0 44.1429 44)" fill="white"/>
<rect opacity="0.1" width="10.381" height="10.381" transform="matrix(8.74228e-08 -1 -1 -8.74228e-08 139.524 93.3828)" fill="white"/>
<rect opacity="0.4" width="10.381" height="10.381" transform="matrix(8.74228e-08 -1 -1 -8.74228e-08 126.143 93.3828)" fill="white"/>
<rect opacity="0.7" width="10.381" height="10.381" transform="matrix(8.74228e-08 -1 -1 -8.74228e-08 112.762 93.3828)" fill="white"/>
<rect width="10.381" height="10.381" transform="matrix(8.74228e-08 -1 -1 -8.74228e-08 99.381 93.3828)" fill="white"/>
<path d="M66.064 81.84L76.88 55.472H79.664L68.848 81.84H66.064Z" fill="white"/>
<path d="M49.672 71V69.08L52.872 65.784C53.5013 65.1333 53.976 64.6213 54.296 64.248C54.6267 63.864 54.8507 63.544 54.968 63.288C55.096 63.032 55.16 62.7813 55.16 62.536C55.16 62.0987 55.016 61.7573 54.728 61.512C54.4507 61.256 54.0987 61.128 53.672 61.128C53.2347 61.128 52.8453 61.256 52.504 61.512C52.1627 61.7573 51.912 62.136 51.752 62.648L49.592 61.944C49.72 61.3253 49.9867 60.7867 50.392 60.328C50.7973 59.8693 51.288 59.5173 51.864 59.272C52.44 59.016 53.0427 58.888 53.672 58.888C54.4613 58.888 55.1547 59.0267 55.752 59.304C56.3493 59.5813 56.8133 59.9707 57.144 60.472C57.4747 60.9733 57.64 61.56 57.64 62.232C57.64 62.6587 57.5653 63.08 57.416 63.496C57.2667 63.9013 57.0373 64.3173 56.728 64.744C56.4293 65.16 56.04 65.6133 55.56 66.104L52.824 68.92H57.752V71H49.672ZM64.167 71V68.44H58.887V66.36L64.007 59.08H66.647V66.36H68.487V68.44H66.647V71H64.167ZM60.695 67.256L60.231 66.36H64.167V61L64.791 61.192L60.695 67.256Z" fill="white"/>
<path d="M78.12 84L82.936 74.16H77.432V72.08H85.544V74.16L80.872 84H78.12Z" fill="white"/>
<defs>
<linearGradient id="paint0_linear_984_8026" x1="69.5" y1="39" x2="69.5" y2="98" gradientUnits="userSpaceOnUse">
<stop stop-color="#D9D9D9"/>
<stop offset="1" stop-color="#C6C6C6" stop-opacity="0"/>
</linearGradient>
</defs>
</svg>
