<svg width="140" height="141" viewBox="0 0 140 141" fill="none" xmlns="http://www.w3.org/2000/svg">
<rect opacity="0.1" width="10.381" height="10.381" transform="matrix(0 -1 -1 0 131.262 112.691)" fill="white"/>
<rect opacity="0.4" width="10.381" height="10.381" transform="matrix(0 -1 -1 0 117.881 112.691)" fill="white"/>
<rect opacity="0.7" width="10.381" height="10.381" transform="matrix(0 -1 -1 0 104.5 112.691)" fill="white"/>
<rect width="10.381" height="10.381" transform="matrix(0 -1 -1 0 91.119 112.691)" fill="white"/>
<path d="M116.738 46.3086L87.2235 46.5508" stroke="white" stroke-width="3" stroke-linecap="round" stroke-linejoin="round"/>
<path d="M12.738 107.309L42.2526 107.066" stroke="white" stroke-width="3" stroke-linecap="round" stroke-linejoin="round"/>
<path fill-rule="evenodd" clip-rule="evenodd" d="M81.738 51.3086C84.4995 51.3086 86.738 49.07 86.738 46.3086C86.738 43.5472 84.4995 41.3086 81.738 41.3086C78.9766 41.3086 76.738 43.5472 76.738 46.3086C76.738 49.07 78.9766 51.3086 81.738 51.3086Z" stroke="white" stroke-width="3"/>
<path fill-rule="evenodd" clip-rule="evenodd" d="M47.738 102.309C44.9766 102.309 42.738 104.547 42.738 107.309C42.738 110.07 44.9766 112.309 47.738 112.309C50.4995 112.309 52.738 110.07 52.738 107.309C52.738 104.547 50.4995 102.309 47.738 102.309Z" stroke="white" stroke-width="3"/>
<path d="M64.4522 59.3459L64.4521 59.3458C64.1519 59.4113 63.8666 59.7127 63.8666 60.1669V64.8638V65.8493L62.9621 66.2406C61.804 66.7415 60.715 67.3521 59.7354 68.068L58.9512 68.641L58.1075 68.16L54.2346 65.9522C54.2342 65.952 54.2339 65.9519 54.2336 65.9517C53.8205 65.7179 53.4005 65.8109 53.1705 66.052C52.0668 67.2152 51.0879 68.5279 50.2361 69.9798C49.3943 71.4148 48.7516 72.913 48.2667 74.4502C48.1789 74.7516 48.2986 75.1367 48.6979 75.3632L48.6984 75.3635L52.5897 77.5729L53.4604 78.0672L53.3378 79.0609C53.2687 79.6217 53.2397 80.1925 53.2397 80.7931C53.2397 81.3717 53.2815 81.9502 53.3419 82.5617L53.4374 83.5302L52.592 84.0121L48.7163 86.2215L48.7135 86.2231C48.2938 86.4612 48.1915 86.8494 48.2781 87.1225L48.2805 87.1302L48.2828 87.1378C48.7482 88.6618 49.4038 90.161 50.2518 91.6064C51.1039 93.0589 52.083 94.3719 53.1872 95.5354L52.0992 96.568M64.4522 59.3459L84.2359 65.9674C84.6495 65.7331 85.07 65.8264 85.3 66.068C86.4035 67.2311 87.3822 68.5436 88.2338 69.9953C89.0818 71.4407 89.7374 72.94 90.2028 74.4639L90.2051 74.4716L90.2075 74.4792C90.2941 74.7523 90.1919 75.1405 89.7721 75.3786L89.7699 75.3799L85.863 77.6047L85.0146 78.0878L85.1129 79.0592C85.1728 79.6518 85.2146 80.23 85.2146 80.8086C85.2146 81.4078 85.1858 81.9634 85.1165 82.5253L84.9941 83.5177L85.863 84.0125L89.7699 86.2373L89.7721 86.2385C90.1713 86.465 90.291 86.8502 90.2032 87.1515C89.7208 88.681 89.0628 90.1841 88.2281 91.6317C87.3989 93.07 86.4086 94.3808 85.3 95.5492C85.0675 95.7934 84.6346 95.8797 84.2447 95.6548L84.2447 95.6548L84.2359 95.6498L80.3446 93.4404L79.5017 92.9618L78.719 93.5337C77.7299 94.2565 76.6749 94.8619 75.538 95.3396L74.619 95.7257V96.7225V101.45C74.619 101.904 74.3337 102.206 74.0335 102.271L74.0335 102.271L74.0225 102.274C72.4871 102.621 70.8789 102.809 69.2428 102.809C67.6068 102.809 65.9986 102.621 64.4632 102.274L64.4632 102.274L64.4521 102.271C64.1519 102.206 63.8666 101.904 63.8666 101.45V96.7225V95.7257L62.9476 95.3396C61.8003 94.8575 60.7199 94.2517 59.7465 93.5265L58.9583 92.9392L58.1052 93.4275L54.2502 95.6341C54.2495 95.6345 54.2488 95.6349 54.2481 95.6353C53.8351 95.8684 53.4153 95.775 53.1856 95.5337L52.0992 96.568M64.4522 59.3459L64.4632 59.3434C65.9986 58.9964 67.6068 58.8086 69.2428 58.8086C70.8789 58.8086 72.487 58.9964 74.0225 59.3434L74.0225 59.3434L74.0335 59.3458C74.3337 59.4113 74.619 59.7127 74.619 60.1669V64.8947V65.8866L75.5317 66.275C76.6621 66.756 77.7342 67.3638 78.719 68.0835L79.5017 68.6554L80.3446 68.1768L84.2354 65.9677L64.4522 59.3459ZM52.0992 96.568C52.8493 97.3559 54.037 97.4795 54.9903 96.9388L48.9424 69.2208C48.0359 70.7659 47.3483 72.3727 46.8326 74.0104C46.52 75.0456 47.0045 76.1271 47.9578 76.6679L51.8491 78.8773C51.771 79.5108 51.7397 80.1442 51.7397 80.7931C51.7397 81.4421 51.7866 82.0755 51.8491 82.709L47.9734 84.9184C47.0201 85.4592 46.5201 86.5407 46.8482 87.5759C47.3483 89.2136 48.0516 90.8204 48.958 92.3655C49.8644 93.9105 50.9114 95.3165 52.0992 96.568Z" stroke="white" stroke-width="3"/>
<path d="M28.9565 87.3086H114.201C115.758 84.6966 124.473 89.7103 122.429 70.9286C120.545 53.6065 95.6617 51.0314 87.0045 60.7525C86.3477 61.4899 84.8023 61.2125 84.5852 60.2492C81.4046 46.1364 70.3272 28.3086 50.7924 28.3086C34.7441 28.3086 24.402 37.4649 20.3132 47.1993C14.9959 59.8584 18.1436 76.173 27.6299 87.2057L28.9565 87.3086Z" fill="url(#paint0_linear_984_7956)"/>
<rect opacity="0.1" width="10.381" height="10.381" transform="matrix(0 1 1 0 8.73804 41.3086)" fill="white"/>
<rect opacity="0.4" width="10.381" height="10.381" transform="matrix(0 1 1 0 22.119 41.3086)" fill="white"/>
<rect opacity="0.7" width="10.381" height="10.381" transform="matrix(0 1 1 0 35.5 41.3086)" fill="white"/>
<rect width="10.381" height="10.381" transform="matrix(0 1 1 0 48.881 41.3086)" fill="white"/>
<path d="M62.738 80.8086L65.8093 84.0435C67.0099 85.3081 69.032 85.2861 70.2049 83.9957L76.3049 77.2847" stroke="white" stroke-width="3" stroke-linecap="square" stroke-linejoin="round"/>
<defs>
<linearGradient id="paint0_linear_984_7956" x1="67.2542" y1="28.3086" x2="67.2542" y2="87.3086" gradientUnits="userSpaceOnUse">
<stop stop-color="white"/>
<stop offset="1" stop-color="#D8D8D8" stop-opacity="0"/>
</linearGradient>
</defs>
</svg>
