<svg width="140" height="141" viewBox="0 0 140 141" fill="none" xmlns="http://www.w3.org/2000/svg">
<path fill-rule="evenodd" clip-rule="evenodd" d="M99 51.5H41V89.5H56V84.1986C56 78.8424 60.4198 74.5 65.8753 74.5H74.1226C79.5764 74.5 83.9984 78.8424 83.9984 84.1986L83.9997 89.5H99V51.5ZM70 71.5C73.8661 71.5 77 68.3655 77 64.4992C77 60.6328 73.8661 57.5 70 57.5C66.1339 57.5 63 60.6327 63 64.4992C63 68.3657 66.1339 71.5 70 71.5Z" fill="url(#paint0_linear_984_8105)"/>
<path d="M33 72.5V43.5H81V38" stroke="white" stroke-width="3" stroke-linecap="round" stroke-linejoin="round"/>
<path d="M107 68.5V97.5H59V103" stroke="white" stroke-width="3" stroke-linecap="round" stroke-linejoin="round"/>
<path fill-rule="evenodd" clip-rule="evenodd" d="M81 37.5C78.2386 37.5 76 35.2614 76 32.5C76 29.7386 78.2386 27.5 81 27.5C83.7614 27.5 86 29.7386 86 32.5C86 35.2614 83.7614 37.5 81 37.5Z" stroke="white" stroke-width="3"/>
<path fill-rule="evenodd" clip-rule="evenodd" d="M59 113.5C56.2386 113.5 54 111.261 54 108.5C54 105.739 56.2386 103.5 59 103.5C61.7614 103.5 64 105.739 64 108.5C64 111.261 61.7614 113.5 59 113.5Z" stroke="white" stroke-width="3"/>
<path d="M23 101.5V117.5H39" stroke="#CBCBCB" stroke-width="4"/>
<path d="M117 101.5V117.5H101" stroke="#CBCBCB" stroke-width="4"/>
<path d="M23 39.5V23.5H39" stroke="#CBCBCB" stroke-width="4"/>
<path d="M117 39.5V23.5H101" stroke="#CBCBCB" stroke-width="4"/>
<rect opacity="0.1" x="74" y="57.8828" width="10.381" height="10.381" transform="rotate(-90 74 57.8828)" fill="white"/>
<rect opacity="0.4" x="87.381" y="57.8828" width="10.381" height="10.381" transform="rotate(-90 87.381 57.8828)" fill="white"/>
<rect opacity="0.7" x="100.762" y="57.8828" width="10.381" height="10.381" transform="rotate(-90 100.762 57.8828)" fill="white"/>
<rect x="114.143" y="57.8828" width="10.381" height="10.381" transform="rotate(-90 114.143 57.8828)" fill="white"/>
<rect opacity="0.1" x="65.5239" y="83.5" width="10.381" height="10.381" transform="rotate(90 65.5239 83.5)" fill="white"/>
<rect opacity="0.4" x="52.1429" y="83.5" width="10.381" height="10.381" transform="rotate(90 52.1429 83.5)" fill="white"/>
<rect opacity="0.7" x="38.762" y="83.5" width="10.381" height="10.381" transform="rotate(90 38.762 83.5)" fill="white"/>
<rect x="25.381" y="83.5" width="10.381" height="10.381" transform="rotate(90 25.381 83.5)" fill="white"/>
<defs>
<linearGradient id="paint0_linear_984_8105" x1="70" y1="51.5" x2="70" y2="89.5" gradientUnits="userSpaceOnUse">
<stop stop-color="#D5D5D5"/>
<stop offset="1" stop-color="#F8F8F8" stop-opacity="0"/>
</linearGradient>
</defs>
</svg>
