<svg width="140" height="140" viewBox="0 0 140 140" fill="none" xmlns="http://www.w3.org/2000/svg">
<path d="M115.548 46.9351L77.0959 24.3752C74.5963 22.9086 71.4989 22.9086 68.9993 24.3752L34.4993 44.6166C32.0513 46.0528 30.5476 48.6785 30.5476 51.5167V83.5529M30.5476 94.3117L69.1528 115.829C71.574 117.179 74.5212 117.179 76.9424 115.829L111.442 96.5998C113.977 95.1873 115.548 92.5133 115.548 89.6119V55.3176" stroke="white" stroke-width="3"/>
<path fill-rule="evenodd" clip-rule="evenodd" d="M44.1292 49.8183C41.6708 51.2518 40.1589 53.8834 40.1589 56.7293V84.1197C40.1589 87.0286 41.7379 89.7082 44.2825 91.1177L69.4092 105.036C71.8209 106.372 74.7505 106.372 77.1622 105.036L102.289 91.1177C104.834 89.7082 106.412 87.0286 106.412 84.1197V56.7293C106.412 53.8834 104.901 51.2518 102.442 49.8183L77.3154 35.1672C74.8251 33.7151 71.7463 33.7151 69.256 35.1672L44.1292 49.8183ZM72.6099 66.4989C75.9704 66.4989 78.6944 63.8018 78.6944 60.4751C78.6944 57.1483 75.9704 54.4528 72.6099 54.4528C69.2495 54.4528 66.5254 57.1483 66.5254 60.4751C66.5254 63.802 69.2495 66.4989 72.6099 66.4989ZM69.0247 69.0802H76.1934C79.3552 69.0802 82.118 70.7423 83.6075 73.2168C84.0811 73.0846 84.5789 73.0141 85.0926 73.0141H89.8718C93.0322 73.0141 95.5946 75.683 95.5946 78.9749L95.5955 82.8477H84.7785L84.7789 85.5514H60.4409V82.8477H49.6238V78.9749C49.6238 75.683 52.185 73.0141 55.3463 73.0141H60.1255C60.6391 73.0141 61.1369 73.0846 61.6105 73.2168C63.0995 70.7423 65.8619 69.0802 69.0247 69.0802ZM87.4828 71.1704C89.7231 71.1704 91.5392 69.2439 91.5392 66.8677C91.5392 64.4914 89.7231 62.566 87.4828 62.566C85.2425 62.566 83.4265 64.4914 83.4265 66.8677C83.4265 69.244 85.2425 71.1704 87.4828 71.1704ZM61.7928 66.8677C61.7928 69.2439 59.9768 71.1704 57.7365 71.1704C55.4962 71.1704 53.6802 69.244 53.6802 66.8677C53.6802 64.4914 55.4962 62.566 57.7365 62.566C59.9768 62.566 61.7928 64.4914 61.7928 66.8677Z" fill="url(#paint0_linear_1171_3726)"/>
<rect opacity="0.1" x="10.9285" y="44.3828" width="10.381" height="10.381" transform="rotate(-90 10.9285 44.3828)" fill="white"/>
<rect opacity="0.4" x="24.3096" y="44.3828" width="10.381" height="10.381" transform="rotate(-90 24.3096 44.3828)" fill="white"/>
<rect opacity="0.7" x="37.6904" y="44.3828" width="10.381" height="10.381" transform="rotate(-90 37.6904 44.3828)" fill="white"/>
<rect x="51.0713" y="44.3828" width="10.381" height="10.381" transform="rotate(-90 51.0713 44.3828)" fill="white"/>
<rect opacity="0.1" x="129.072" y="98" width="10.381" height="10.381" transform="rotate(90 129.072 98)" fill="white"/>
<rect opacity="0.4" x="115.69" y="98" width="10.381" height="10.381" transform="rotate(90 115.69 98)" fill="white"/>
<rect opacity="0.7" x="102.31" y="98" width="10.381" height="10.381" transform="rotate(90 102.31 98)" fill="white"/>
<rect x="88.9287" y="98" width="10.381" height="10.381" transform="rotate(90 88.9287 98)" fill="white"/>
<path d="M26.5476 80L31.0476 84L35.5476 80" stroke="white" stroke-width="3" stroke-linecap="round" stroke-linejoin="round"/>
<path d="M120.548 60L116.048 56L111.548 60" stroke="white" stroke-width="3" stroke-linecap="round" stroke-linejoin="round"/>
<defs>
<linearGradient id="paint0_linear_1171_3726" x1="73.2857" y1="32.3517" x2="73.2857" y2="107.607" gradientUnits="userSpaceOnUse">
<stop stop-color="#D9D9D9"/>
<stop offset="1" stop-color="#D9D9D9" stop-opacity="0"/>
</linearGradient>
</defs>
</svg>
