<svg width="140" height="141" viewBox="0 0 140 141" fill="none" xmlns="http://www.w3.org/2000/svg">
<rect x="31" y="43.5" width="64.7246" height="44.6377" stroke="url(#paint0_linear_981_7610)" stroke-width="4"/>
<rect x="43.2754" y="58.0078" width="64.7246" height="44.6377" fill="url(#paint1_linear_981_7610)"/>
<path fill-rule="evenodd" clip-rule="evenodd" d="M85.6944 88.2432L82.8852 85.4179L87.8744 80.4L82.8443 75.3409L85.6534 72.5156L93.4928 80.4L85.6944 88.2432ZM65.5811 88.2433L57.7826 80.4L65.6221 72.5156L68.4313 75.341L63.4011 80.4L68.3904 85.418L65.5811 88.2433ZM71.4712 88.2449H75.4031L79.335 72.5156H75.4614L71.4712 88.2449Z" fill="white"/>
<circle cx="39.5" cy="52" r="2.5" fill="white"/>
<circle cx="46.5" cy="52" r="2.5" fill="white"/>
<circle cx="53.5" cy="52" r="2.5" fill="white"/>
<path d="M19 80.5V114.5H53" stroke="white" stroke-width="3" stroke-linecap="round" stroke-linejoin="round"/>
<path fill-rule="evenodd" clip-rule="evenodd" d="M58 119.5C55.2386 119.5 53 117.261 53 114.5C53 111.739 55.2386 109.5 58 109.5C60.7614 109.5 63 111.739 63 114.5C63 117.261 60.7614 119.5 58 119.5Z" stroke="white" stroke-width="3"/>
<path fill-rule="evenodd" clip-rule="evenodd" d="M19 80.5C16.2386 80.5 14 78.2614 14 75.5C14 72.7386 16.2386 70.5 19 70.5C21.7614 70.5 24 72.7386 24 75.5C24 78.2614 21.7614 80.5 19 80.5Z" stroke="white" stroke-width="3"/>
<path d="M121 60.5V26.5H87" stroke="white" stroke-width="3" stroke-linecap="round" stroke-linejoin="round"/>
<path fill-rule="evenodd" clip-rule="evenodd" d="M82 21.5C84.7614 21.5 87 23.7386 87 26.5C87 29.2614 84.7614 31.5 82 31.5C79.2386 31.5 77 29.2614 77 26.5C77 23.7386 79.2386 21.5 82 21.5Z" stroke="white" stroke-width="3"/>
<path fill-rule="evenodd" clip-rule="evenodd" d="M121 60.5C123.761 60.5 126 62.7386 126 65.5C126 68.2614 123.761 70.5 121 70.5C118.239 70.5 116 68.2614 116 65.5C116 62.7386 118.239 60.5 121 60.5Z" stroke="white" stroke-width="3"/>
<rect opacity="0.1" width="10.381" height="10.381" transform="matrix(0 -1 -1 0 125.524 119.883)" fill="white"/>
<rect opacity="0.4" width="10.381" height="10.381" transform="matrix(0 -1 -1 0 112.143 119.883)" fill="white"/>
<rect opacity="0.7" width="10.381" height="10.381" transform="matrix(0 -1 -1 0 98.762 119.883)" fill="white"/>
<rect width="10.381" height="10.381" transform="matrix(0 -1 -1 0 85.381 119.883)" fill="white"/>
<rect opacity="0.1" width="10.381" height="10.381" transform="matrix(0 1 1 0 14 21.5)" fill="white"/>
<rect opacity="0.4" width="10.381" height="10.381" transform="matrix(0 1 1 0 27.381 21.5)" fill="white"/>
<rect opacity="0.7" width="10.381" height="10.381" transform="matrix(0 1 1 0 40.762 21.5)" fill="white"/>
<rect width="10.381" height="10.381" transform="matrix(0 1 1 0 54.1429 21.5)" fill="white"/>
<defs>
<linearGradient id="paint0_linear_981_7610" x1="63.3623" y1="43.5" x2="63.3623" y2="88.1377" gradientUnits="userSpaceOnUse">
<stop stop-color="white"/>
<stop offset="1" stop-color="#7AB66B" stop-opacity="0"/>
</linearGradient>
<linearGradient id="paint1_linear_981_7610" x1="75.6377" y1="58.0078" x2="75.6377" y2="102.645" gradientUnits="userSpaceOnUse">
<stop stop-color="white"/>
<stop offset="1" stop-color="#DEDEDE" stop-opacity="0"/>
</linearGradient>
</defs>
</svg>
