<svg width="17" height="19" viewBox="0 0 17 19" fill="none" stroke="url(#gradient)" stroke-width="1.4" stroke-linecap="round" stroke-linejoin="round" xmlns="http://www.w3.org/2000/svg">
  <path d="M15.3608 8.65675C15.3608 14.0356 9.85161 17.3493 8.70672 17.9805C8.6433 18.0155 8.57205 18.0339 8.49961 18.0339C8.42718 18.0339 8.35593 18.0155 8.29251 17.9805C7.14676 17.3493 1.63928 14.0356 1.63928 8.65675C1.63928 4.36877 4.21207 1.36719 8.50004 1.36719C12.788 1.36719 15.3608 4.36877 15.3608 8.65675Z" />
  <path d="M5.0697 8.22726C5.0697 9.13705 5.43112 10.0096 6.07444 10.6529C6.71776 11.2962 7.59029 11.6576 8.50008 11.6576C9.40988 11.6576 10.2824 11.2962 10.9257 10.6529C11.569 10.0096 11.9305 9.13705 11.9305 8.22726C11.9305 7.31746 11.569 6.44493 10.9257 5.80161C10.2824 5.15829 9.40988 4.79688 8.50008 4.79688C7.59029 4.79688 6.71776 5.15829 6.07444 5.80161C5.43112 6.44493 5.0697 7.31746 5.0697 8.22726V8.22726Z" />
  <defs>
    <linearGradient id="gradient" x1="12.8042" y1="18.0339" x2="12.8042" y2="1.36719" gradientUnits="userSpaceOnUse">
      <stop stop-color="#F57B20" />
      <stop offset="1" stop-color="#FCB040" />
    </linearGradient>
  </defs>
</svg>
