<svg width="72" height="74" viewBox="0 0 72 74" fill="none" xmlns="http://www.w3.org/2000/svg">
<path fill-rule="evenodd" clip-rule="evenodd" d="M34.2923 1.42308C34.2923 0.637133 34.9294 0 35.7153 0H58.4846C59.0387 0 59.5424 0.321641 59.7756 0.82432C60.0087 1.327 59.9289 1.9193 59.5709 2.3423L54.119 8.78544L59.5336 14.6922C59.9149 15.1082 60.0144 15.7103 59.7872 16.2269C59.5599 16.7434 59.0489 17.0769 58.4846 17.0769H37.1384V35.159L45.931 48.8363L51.0088 40.5272C51.2701 40.0995 51.7372 39.8408 52.2384 39.8462C52.7396 39.8517 53.201 40.1203 53.4531 40.5536L71.6685 71.8613C71.9246 72.3015 71.9259 72.8449 71.672 73.2864C71.4181 73.7279 70.9477 74 70.4384 74H1.5615C1.05925 74 0.594187 73.7352 0.337803 73.3034C0.0814187 72.8715 0.0716855 72.3364 0.312192 71.8955L17.3891 40.5878C17.6277 40.1504 18.0776 39.8696 18.5754 39.8476C19.0731 39.8255 19.5461 40.0653 19.8225 40.4799L25.4475 48.9174L34.2923 35.159V1.42308ZM35.7153 38.2086L26.6797 52.2641L15.4479 71.1538H55.9828L44.751 52.264L35.7153 38.2086ZM47.6231 51.5254L59.2941 71.1538H67.964L52.193 44.0474L47.6231 51.5254ZM12.1366 71.1538L23.7878 51.5588L18.7603 44.0176L3.95874 71.1538H12.1366ZM37.1384 14.2308H55.2496L51.174 9.78469C50.6899 9.25653 50.6739 8.4508 51.1367 7.90385L55.4163 2.84615H37.1384V14.2308ZM38.3922 50.299C39.064 49.8911 39.9393 50.105 40.3472 50.7768L50.0241 66.7153C50.432 67.3871 50.218 68.2624 49.5462 68.6703C48.8744 69.0782 47.9991 68.8642 47.5912 68.1924L37.9143 52.2539C37.5064 51.5821 37.7204 50.7068 38.3922 50.299Z" fill="black"/>
<path d="M37.9923 47.5319C37.9923 48.475 37.2277 49.2396 36.2846 49.2396C35.3415 49.2396 34.5769 48.475 34.5769 47.5319C34.5769 46.5888 35.3415 45.8242 36.2846 45.8242C37.2277 45.8242 37.9923 46.5888 37.9923 47.5319Z" fill="black"/>
</svg>
