<svg width="70" height="70" viewBox="0 0 70 70" fill="none" xmlns="http://www.w3.org/2000/svg">
<path fill-rule="evenodd" clip-rule="evenodd" d="M35 0.75C35.6904 0.75 36.25 1.30964 36.25 2V16.7273C36.25 17.0588 36.1183 17.3767 35.8839 17.6112C35.6495 17.8456 35.3315 17.9773 35 17.9773C25.448 17.9773 17.7046 25.7207 17.7046 35.2727C17.7046 44.8247 25.448 52.5682 35 52.5682C44.552 52.5682 52.2955 44.8247 52.2955 35.2727C52.2955 34.5824 52.8551 34.0227 53.5455 34.0227H68.2728C68.9631 34.0227 69.5228 34.5824 69.5228 35.2727C69.5228 35.9631 68.9631 36.5227 68.2728 36.5227H61.3118C60.7884 47.7283 53.264 57.1009 43.0164 60.3713C42.3588 60.5812 41.6555 60.2182 41.4456 59.5605C41.2357 58.9028 41.5987 58.1995 42.2564 57.9896C51.4972 55.0405 58.2877 46.6091 58.8087 36.5227H54.7567C54.1375 46.4597 46.187 54.4102 36.25 55.0294V60.3593C36.25 60.3607 36.25 60.3622 36.25 60.3637C36.25 60.3651 36.25 60.3666 36.25 60.3681V68C36.25 68.6904 35.6904 69.25 35 69.25C34.3097 69.25 33.75 68.6904 33.75 68V61.5845C22.3369 61.0514 12.8251 53.2556 9.72588 42.7163C9.53112 42.054 9.91014 41.3592 10.5725 41.1644C11.2348 40.9697 11.9296 41.3487 12.1243 42.011C14.9191 51.5149 23.4759 58.5507 33.75 59.0815V55.0294C23.813 54.4102 15.8626 46.4597 15.2434 36.5227H9.91849C9.91537 36.5228 9.91225 36.5228 9.90913 36.5228C9.906 36.5228 9.90288 36.5228 9.89976 36.5227H1.72729C1.03694 36.5227 0.477295 35.9631 0.477295 35.2727C0.477295 34.5824 1.03694 34.0227 1.72729 34.0227H8.68826C9.24997 21.9982 17.8732 12.0836 29.275 9.55604C29.9489 9.40663 30.6164 9.83189 30.7659 10.5059C30.9153 11.1799 30.49 11.8474 29.816 11.9968C19.5345 14.276 11.7507 23.1955 11.1913 34.0227H15.2434C15.8626 24.0857 23.813 16.1353 33.75 15.5161V2C33.75 1.30964 34.3097 0.75 35 0.75ZM57.7869 3.60416C58.2799 3.78177 58.6098 4.24806 58.6132 4.77209L58.6545 11.1583L65.5861 11.1135C66.1092 11.1101 66.5791 11.4328 66.7637 11.9222C66.9484 12.4116 66.8088 12.9643 66.4138 13.3073L55.023 23.1993C54.7977 23.395 54.5099 23.5036 54.2115 23.5055L48.7138 23.541L36.0647 35.821C35.5694 36.3019 34.778 36.2902 34.2971 35.7948C33.8162 35.2995 33.828 34.5081 34.3233 34.0273L46.9501 21.769L46.9112 15.7571C46.9093 15.4605 47.0129 15.1728 47.2036 14.9456L56.4056 3.97679C56.7424 3.57531 57.2938 3.42654 57.7869 3.60416ZM49.4454 21.0363L53.7329 21.0085L62.2233 13.6353L57.4207 13.6664C57.0891 13.6685 56.7704 13.5389 56.5344 13.306C56.2985 13.0731 56.1647 12.756 56.1626 12.4245L56.1352 8.18883L49.4141 16.2004L49.4454 21.0363ZM35 24.5227C29.063 24.5227 24.25 29.3357 24.25 35.2727C24.25 41.2098 29.063 46.0227 35 46.0227C40.9371 46.0227 45.75 41.2098 45.75 35.2727C45.75 34.5824 46.3097 34.0227 47 34.0227C47.6904 34.0227 48.25 34.5824 48.25 35.2727C48.25 42.5905 42.3178 48.5227 35 48.5227C27.6823 48.5227 21.75 42.5905 21.75 35.2727C21.75 27.955 27.6823 22.0227 35 22.0227C35.6904 22.0227 36.25 22.5824 36.25 23.2727C36.25 23.9631 35.6904 24.5227 35 24.5227Z" fill="black"/>
</svg>
