<svg width="62" height="76" viewBox="0 0 62 76" fill="none" xmlns="http://www.w3.org/2000/svg">
<path fill-rule="evenodd" clip-rule="evenodd" d="M30.75 0.25C31.4404 0.25 32 0.809644 32 1.5V13C32 13.6904 31.4404 14.25 30.75 14.25C30.0596 14.25 29.5 13.6904 29.5 13V1.5C29.5 0.809644 30.0596 0.25 30.75 0.25ZM3.8971 12.0862C4.40179 11.6151 5.19278 11.6424 5.66382 12.1471L12.6638 19.6471C13.1349 20.1518 13.1076 20.9428 12.6029 21.4138C12.0982 21.8849 11.3072 21.8576 10.8362 21.3529L3.83618 13.8529C3.36514 13.3482 3.39241 12.5572 3.8971 12.0862ZM57.6029 12.0862C58.1076 12.5572 58.1349 13.3482 57.6638 13.8529L50.6638 21.3529C50.1928 21.8576 49.4018 21.8849 48.8971 21.4138C48.3924 20.9428 48.3651 20.1518 48.8362 19.6471L55.8362 12.1471C56.3072 11.6424 57.0982 11.6151 57.6029 12.0862ZM3.19904 38.0372C7.19206 45.0022 15.7878 51.8889 25.9624 53.6431C36.1375 55.3975 48.0699 52.0441 58.6858 38.0076C52.9683 30.5863 47.1843 26.1223 41.6411 23.7508C35.9256 21.3055 30.3953 21.0539 25.3288 22.1588C15.4505 24.313 7.28913 31.6439 3.19904 38.0372ZM42.6245 21.4523C48.8416 24.1121 55.1507 29.1176 61.25 37.2499C61.5803 37.6904 61.5836 38.2952 61.258 38.7392C50.0119 54.0748 36.9344 58.0718 25.5376 56.1068C14.2668 54.1635 4.82108 46.4145 0.64706 38.5882C0.439674 38.1993 0.452369 37.73 0.680472 37.3529C4.89731 30.3823 13.7818 22.1181 24.7962 19.7162C30.3339 18.5085 36.3974 18.7882 42.6245 21.4523ZM12.6029 55.5862C13.1076 56.0572 13.1349 56.8482 12.6638 57.3529L5.66382 64.8529C5.19278 65.3576 4.40179 65.3849 3.8971 64.9138C3.39241 64.4428 3.36514 63.6518 3.83618 63.1471L10.8362 55.6471C11.3072 55.1424 12.0982 55.1151 12.6029 55.5862ZM48.8971 55.5862C49.4018 55.1151 50.1928 55.1424 50.6638 55.6471L57.6638 63.1471C58.1349 63.6518 58.1076 64.4428 57.6029 64.9138C57.0982 65.3849 56.3072 65.3576 55.8362 64.8529L48.8362 57.3529C48.3651 56.8482 48.3924 56.0572 48.8971 55.5862ZM30.75 60.75C31.4404 60.75 32 61.3096 32 62V74.5C32 75.1904 31.4404 75.75 30.75 75.75C30.0596 75.75 29.5 75.1904 29.5 74.5V62C29.5 61.3096 30.0596 60.75 30.75 60.75Z" fill="black"/>
<circle cx="22.25" cy="31" r="1.5" fill="black"/>
<path fill-rule="evenodd" clip-rule="evenodd" d="M30.75 28.5C29.1114 28.5 27.5677 28.8933 26.2052 29.5898C25.7134 29.8412 25.111 29.6463 24.8596 29.1546C24.6082 28.6628 24.8031 28.0604 25.2948 27.809C26.9326 26.9718 28.7877 26.5 30.75 26.5C37.3774 26.5 42.75 31.8726 42.75 38.5C42.75 45.1274 37.3774 50.5 30.75 50.5C24.1226 50.5 18.75 45.1274 18.75 38.5C18.75 36.9624 19.0397 35.49 19.5684 34.1362C19.7693 33.6218 20.3492 33.3676 20.8637 33.5685C21.3781 33.7694 21.6323 34.3493 21.4314 34.8638C20.9918 35.9894 20.75 37.2153 20.75 38.5C20.75 44.0228 25.2272 48.5 30.75 48.5C36.2728 48.5 40.75 44.0228 40.75 38.5C40.75 32.9772 36.2728 28.5 30.75 28.5Z" fill="black"/>
<path fill-rule="evenodd" clip-rule="evenodd" d="M30.75 41.5C32.4069 41.5 33.75 40.1569 33.75 38.5C33.75 36.8431 32.4069 35.5 30.75 35.5C29.0931 35.5 27.75 36.8431 27.75 38.5C27.75 40.1569 29.0931 41.5 30.75 41.5ZM30.75 43.5C33.5114 43.5 35.75 41.2614 35.75 38.5C35.75 35.7386 33.5114 33.5 30.75 33.5C27.9886 33.5 25.75 35.7386 25.75 38.5C25.75 41.2614 27.9886 43.5 30.75 43.5Z" fill="black"/>
</svg>
